<?xml version="1.0" standalone="no"?>
<!DOCTYPE svg PUBLIC "-//W3C//DTD SVG 20010904//EN"
 "http://www.w3.org/TR/2001/REC-SVG-20010904/DTD/svg10.dtd">
<svg version="1.0" xmlns="http://www.w3.org/2000/svg"
 width="130.000000pt" height="130.000000pt" viewBox="0 0 130.000000 130.000000"
 preserveAspectRatio="xMidYMid meet">

<g transform="translate(0.000000,130.000000) scale(0.100000,-0.100000)"
fill="#000000" stroke="none">
<path d="M783 1190 c-156 -33 -233 -163 -192 -324 23 -93 101 -150 257 -187
155 -37 192 -60 192 -120 0 -29 -6 -43 -30 -63 -132 -110 -350 10 -350 193 0
25 -10 44 -39 76 -22 24 -44 60 -50 81 -14 51 -14 147 0 195 14 45 60 104 103
130 l31 19 -157 0 -158 0 0 -51 c0 -28 4 -48 9 -45 5 4 21 2 35 -4 26 -9 26
-11 26 -112 l0 -102 -27 26 c-41 38 -71 50 -122 50 -91 0 -163 -52 -210 -152
-23 -49 -26 -68 -26 -165 0 -104 2 -113 30 -164 36 -66 84 -106 145 -122 58
-15 106 -6 161 31 l44 29 3 -24 c3 -25 5 -25 103 -25 94 0 99 1 99 21 0 16 4
19 18 14 132 -56 213 -66 325 -41 145 33 227 120 227 244 0 157 -80 233 -298
283 -118 27 -156 51 -160 101 -4 49 12 76 53 94 50 21 95 17 153 -12 54 -27
105 -90 117 -145 6 -27 10 -29 56 -29 l49 0 0 150 0 150 -44 0 c-40 0 -45 -3
-54 -29 l-10 -29 -61 31 c-67 33 -168 44 -248 27z m-349 -355 c26 -24 26 -24
26 -178 0 -174 -7 -195 -75 -217 -45 -15 -81 2 -109 50 -18 30 -21 52 -21 155
0 104 3 125 22 162 26 47 32 51 89 52 30 1 48 -5 68 -24z"/>
<path d="M80 190 l0 -70 38 0 c50 0 62 14 62 70 0 56 -12 70 -62 70 l-38 0 0
-70z m75 0 c0 -29 -4 -36 -22 -38 -21 -3 -23 1 -23 38 0 37 2 41 23 38 18 -2
22 -9 22 -38z"/>
<path d="M210 190 l0 -70 45 0 c33 0 45 4 45 15 0 10 -10 15 -30 15 -20 0 -30
5 -30 15 0 10 10 15 30 15 17 0 30 5 30 10 0 6 -13 10 -30 10 -20 0 -30 5 -30
15 0 10 10 15 30 15 20 0 30 5 30 15 0 11 -12 15 -45 15 l-45 0 0 -70z"/>
<path d="M372 248 c-25 -25 -7 -68 29 -68 22 0 34 -19 21 -32 -7 -7 -16 -6
-30 1 -23 12 -36 3 -21 -16 15 -17 63 -17 79 2 19 23 8 49 -28 64 -38 17 -37
37 3 33 19 -2 26 1 23 10 -6 17 -60 22 -76 6z"/>
<path d="M470 245 c0 -8 9 -15 20 -15 18 0 20 -7 20 -55 0 -42 3 -55 15 -55
12 0 15 13 15 55 0 48 2 55 20 55 11 0 20 7 20 15 0 12 -13 15 -55 15 -42 0
-55 -3 -55 -15z"/>
<path d="M600 190 l0 -70 45 0 c33 0 45 4 45 15 0 10 -10 15 -30 15 -20 0 -30
5 -30 15 0 10 10 15 30 15 17 0 30 5 30 10 0 6 -13 10 -30 10 -20 0 -30 5 -30
15 0 10 10 15 30 15 20 0 30 5 30 15 0 11 -12 15 -45 15 l-45 0 0 -70z"/>
<path d="M720 190 c0 -40 4 -70 10 -70 6 0 10 21 10 48 l1 47 27 -47 c16 -29
34 -48 45 -48 15 0 17 10 17 70 0 56 -3 70 -15 70 -11 0 -15 -12 -15 -47 l-1
-48 -27 47 c-39 68 -52 63 -52 -22z"/>
<path d="M842 248 c3 -7 14 -14 26 -16 20 -3 22 -10 22 -58 0 -30 5 -54 10
-54 6 0 10 25 10 55 0 48 2 55 20 55 11 0 20 7 20 15 0 12 -13 15 -56 15 -40
0 -55 -4 -52 -12z"/>
<path d="M982 248 c-16 -16 -16 -100 0 -116 16 -16 70 -16 86 0 7 7 12 33 12
60 0 37 -4 50 -19 58 -26 14 -64 13 -79 -2z m68 -58 c0 -41 -14 -53 -42 -38
-23 11 -24 64 -1 76 28 16 43 3 43 -38z"/>
<path d="M1108 190 c2 -38 8 -70 13 -70 5 0 9 11 9 25 0 14 4 25 10 25 5 0 17
-11 26 -25 9 -14 23 -25 30 -25 19 0 18 9 -3 33 -17 18 -17 19 0 28 20 11 23
49 5 67 -7 7 -30 12 -52 12 l-41 0 3 -70z m72 25 c0 -9 -9 -15 -25 -15 -16 0
-25 6 -25 15 0 9 9 15 25 15 16 0 25 -6 25 -15z"/>
</g>
</svg>
